HIERARCHY
ROOT Hips
{
  OFFSET 5.80788e-005 67.184 3.4734
  CHANNELS 6 Xposition Yposition Zposition Zrotation Xrotation Yrotation
  JOINT Chest
  {
    OFFSET 0 8.7983 -4.7612
    CHANNELS 6 Xposition Yposition Zposition Zrotation Xrotation Yrotation
    JOINT Chest2
    {
      OFFSET 0 8.0291 0.4195
      CHANNELS 6 Xposition Yposition Zposition Zrotation Xrotation Yrotation
      JOINT Chest3
      {
        OFFSET 0 9.9351 -2.2114
        CHANNELS 6 Xposition Yposition Zposition Zrotation Xrotation Yrotation
        JOINT Neck
        {
          OFFSET 0 22.3885 -0.4656
          CHANNELS 6 Xposition Yposition Zposition Zrotation Xrotation Yrotation
          JOINT Head
          {
            OFFSET -0.0001 12.643 3.4389
            CHANNELS 6 Xposition Yposition Zposition Zrotation Xrotation Yrotation
            End Site
            {
              OFFSET 0.0001 17.6655 0.5274
            }
          }
        }
        JOINT LeftCollar
        {
          OFFSET 2.2603 21.606 7.4023
          CHANNELS 6 Xposition Yposition Zposition Zrotation Xrotation Yrotation
          JOINT LeftShoulder
          {
            OFFSET 13.5163 -1.1332 -5.0146
            CHANNELS 6 Xposition Yposition Zposition Zrotation Xrotation Yrotation
            JOINT LeftElbow
            {
              OFFSET -0.0995 -28.05 -0.2431
              CHANNELS 6 Xposition Yposition Zposition Zrotation Xrotation Yrotation
              JOINT LeftWrist
              {
                OFFSET 0.0679 -23.3996 -0.1402
                CHANNELS 6 Xposition Yposition Zposition Zrotation Xrotation Yrotation
                JOINT LeftFinger1
                {
                  OFFSET 0.7932 -9.069 2.5189
                  CHANNELS 6 Xposition Yposition Zposition Zrotation Xrotation Yrotation
                  JOINT LeftFinger11
                  {
                    OFFSET -0.8272 -3.3923 0.5977
                    CHANNELS 6 Xposition Yposition Zposition Zrotation Xrotation Yrotation
                    JOINT LeftFinger12
                    {
                      OFFSET -0.5649 -2.3158 0.4082
                      CHANNELS 6 Xposition Yposition Zposition Zrotation Xrotation Yrotation
                      End Site
                      {
                        OFFSET -0.4919 -1.6479 0.2673
                      }
                    }
                  }
                }
                JOINT LeftFinger2
                {
                  OFFSET 0.9159 -9.2044 0.2193
                  CHANNELS 6 Xposition Yposition Zposition Zrotation Xrotation Yrotation
                  JOINT LeftFinger21
                  {
                    OFFSET 0.0117 -4.1944 -0.0248
                    CHANNELS 6 Xposition Yposition Zposition Zrotation Xrotation Yrotation
                    JOINT LeftFinger22
                    {
                      OFFSET 0.0071 -2.3249 -0.0142
                      CHANNELS 6 Xposition Yposition Zposition Zrotation Xrotation Yrotation
                      End Site
                      {
                        OFFSET -0.1475 -2.0882 0.0028
                      }
                    }
                  }
                }
                JOINT LeftFinger3
                {
                  OFFSET 0.6113 -8.7231 -2.0637
                  CHANNELS 6 Xposition Yposition Zposition Zrotation Xrotation Yrotation
                  JOINT LeftFinger31
                  {
                    OFFSET -0.1927 -3.8059 -0.2383
                    CHANNELS 6 Xposition Yposition Zposition Zrotation Xrotation Yrotation
                    JOINT LeftFinger32
                    {
                      OFFSET -0.1091 -2.1688 -0.1362
                      CHANNELS 6 Xposition Yposition Zposition Zrotation Xrotation Yrotation
                      End Site
                      {
                        OFFSET -0.2358 -1.9176 -0.0906
                      }
                    }
                  }
                }
                JOINT LeftFinger4
                {
                  OFFSET -0.6151 -8.0947 -3.5641
                  CHANNELS 6 Xposition Yposition Zposition Zrotation Xrotation Yrotation
                  JOINT LeftFinger41
                  {
                    OFFSET -0.4882 -2.341 -0.6462
                    CHANNELS 6 Xposition Yposition Zposition Zrotation Xrotation Yrotation
                    JOINT LeftFinger42
                    {
                      OFFSET -0.3575 -1.7167 -0.4742
                      CHANNELS 6 Xposition Yposition Zposition Zrotation Xrotation Yrotation
                      End Site
                      {
                        OFFSET -0.4187 -1.5237 -0.3496
                      }
                    }
                  }
                }
                JOINT LeftFinger0
                {
                  OFFSET -1.42 -1.8761 1.4223
                  CHANNELS 6 Xposition Yposition Zposition Zrotation Xrotation Yrotation
                  JOINT LeftFinger01
                  {
                    OFFSET -1.1471 -3.4929 2.6334
                    CHANNELS 6 Xposition Yposition Zposition Zrotation Xrotation Yrotation
                    JOINT LeftFinger02
                    {
                      OFFSET -0.823 -2.3 1.6571
                      CHANNELS 6 Xposition Yposition Zposition Zrotation Xrotation Yrotation
                      End Site
                      {
                        OFFSET -0.5822 -1.6914 1.1582
                      }
                    }
                  }
                }
              }
            }
          }
        }
        JOINT RightCollar
        {
          OFFSET -2.2603 21.606 7.4023
          CHANNELS 6 Xposition Yposition Zposition Zrotation Xrotation Yrotation
          JOINT RightShoulder
          {
            OFFSET -13.5187 -1.1334 -5.0155
            CHANNELS 6 Xposition Yposition Zposition Zrotation Xrotation Yrotation
            JOINT RightElbow
            {
              OFFSET 0.0994 -28.0499 -0.2431
              CHANNELS 6 Xposition Yposition Zposition Zrotation Xrotation Yrotation
              JOINT RightWrist
              {
                OFFSET -0.0679 -23.3996 -0.1402
                CHANNELS 6 Xposition Yposition Zposition Zrotation Xrotation Yrotation
                JOINT RightFinger1
                {
                  OFFSET -0.7932 -9.0691 2.5189
                  CHANNELS 6 Xposition Yposition Zposition Zrotation Xrotation Yrotation
                  JOINT RightFinger11
                  {
                    OFFSET 0.8272 -3.3923 0.5977
                    CHANNELS 6 Xposition Yposition Zposition Zrotation Xrotation Yrotation
                    JOINT RightFinger12
                    {
                      OFFSET 0.565 -2.3158 0.4082
                      CHANNELS 6 Xposition Yposition Zposition Zrotation Xrotation Yrotation
                      End Site
                      {
                        OFFSET 0.4919 -1.6479 0.2673
                      }
                    }
                  }
                }
                JOINT RightFinger2
                {
                  OFFSET -0.916 -9.2044 0.2193
                  CHANNELS 6 Xposition Yposition Zposition Zrotation Xrotation Yrotation
                  JOINT RightFinger21
                  {
                    OFFSET -0.0117 -4.1944 -0.0248
                    CHANNELS 6 Xposition Yposition Zposition Zrotation Xrotation Yrotation
                    JOINT RightFinger22
                    {
                      OFFSET -0.0071 -2.3249 -0.0142
                      CHANNELS 6 Xposition Yposition Zposition Zrotation Xrotation Yrotation
                      End Site
                      {
                        OFFSET 0.1475 -2.0882 0.0028
                      }
                    }
                  }
                }
                JOINT RightFinger3
                {
                  OFFSET -0.6113 -8.7231 -2.0637
                  CHANNELS 6 Xposition Yposition Zposition Zrotation Xrotation Yrotation
                  JOINT RightFinger31
                  {
                    OFFSET 0.1927 -3.8059 -0.2383
                    CHANNELS 6 Xposition Yposition Zposition Zrotation Xrotation Yrotation
                    JOINT RightFinger32
                    {
                      OFFSET 0.1091 -2.1688 -0.1362
                      CHANNELS 6 Xposition Yposition Zposition Zrotation Xrotation Yrotation
                      End Site
                      {
                        OFFSET 0.2358 -1.9176 -0.0906
                      }
                    }
                  }
                }
                JOINT RightFinger4
                {
                  OFFSET 0.6151 -8.0947 -3.564
                  CHANNELS 6 Xposition Yposition Zposition Zrotation Xrotation Yrotation
                  JOINT RightFinger41
                  {
                    OFFSET 0.4882 -2.341 -0.6462
                    CHANNELS 6 Xposition Yposition Zposition Zrotation Xrotation Yrotation
                    JOINT RightFinger42
                    {
                      OFFSET 0.3574 -1.7166 -0.4742
                      CHANNELS 6 Xposition Yposition Zposition Zrotation Xrotation Yrotation
                      End Site
                      {
                        OFFSET 0.4187 -1.5237 -0.3496
                      }
                    }
                  }
                }
                JOINT RightFinger0
                {
                  OFFSET 1.4199 -1.8761 1.4221
                  CHANNELS 6 Xposition Yposition Zposition Zrotation Xrotation Yrotation
                  JOINT RightFinger01
                  {
                    OFFSET 1.1472 -3.4929 2.6336
                    CHANNELS 6 Xposition Yposition Zposition Zrotation Xrotation Yrotation
                    JOINT RightFinger02
                    {
                      OFFSET 0.8229 -2.3 1.6571
                      CHANNELS 6 Xposition Yposition Zposition Zrotation Xrotation Yrotation
                      End Site
                      {
                        OFFSET 0.5822 -1.6914 1.1582
                      }
                    }
                  }
                }
              }
            }
          }
        }
      }
    }
  }
  JOINT RightHip
  {
    OFFSET -9.412 3.9771 -0.7758
    CHANNELS 6 Xposition Yposition Zposition Zrotation Xrotation Yrotation
    JOINT RightKnee
    {
      OFFSET -0.7531 -40.938 0
      CHANNELS 6 Xposition Yposition Zposition Zrotation Xrotation Yrotation
      JOINT RightAnkle
      {
        OFFSET 0 -40.1986 0
        CHANNELS 6 Xposition Yposition Zposition Zrotation Xrotation Yrotation
        JOINT RightToe
        {
          OFFSET 0 -4.4182 9.239
          CHANNELS 6 Xposition Yposition Zposition Zrotation Xrotation Yrotation
          End Site
          {
            OFFSET 0 0 6.1981
          }
        }
      }
    }
  }
  JOINT LeftHip
  {
    OFFSET 9.4119 3.9773 -0.7758
    CHANNELS 6 Xposition Yposition Zposition Zrotation Xrotation Yrotation
    JOINT LeftKnee
    {
      OFFSET 0.7532 -40.9383 0
      CHANNELS 6 Xposition Yposition Zposition Zrotation Xrotation Yrotation
      JOINT LeftAnkle
      {
        OFFSET 0 -40.1986 0
        CHANNELS 6 Xposition Yposition Zposition Zrotation Xrotation Yrotation
        JOINT LeftToe
        {
          OFFSET 0 -4.4182 9.239
          CHANNELS 6 Xposition Yposition Zposition Zrotation Xrotation Yrotation
          End Site
          {
            OFFSET 0 0 6.1981
          }
        }
      }
    }
  }
}
MOTION
Frames:	4
Frame Time:	0.0333333
5.80788e-005 67.184 3.4734 0 0 -0 0 8.7983 -4.7612 0 0 -0 0 8.0291 0.4195 0 0 -0 0 9.9351 -2.2114 0 0 -0 0 22.3885 -0.4656 0 0 -0 -0.0001 12.643 3.4389 0 0 -0 2.2603 21.606 7.4023 0 0 -12.5014 13.5163 -1.1332 -5.0146 88.1196 14.2451 10.6914 -0.0995 -28.05 -0.2431 -0.00160068 -0.00239207 0.000740045 0.0679 -23.3996 -0.1402 -8.4365e-005 7.00714e-005 -9.52055e-007 0.7932 -9.069 2.5189 9.93923e-017 -1.98785e-016 -1.59028e-015 -0.8272 -3.3923 0.5977 9.93923e-017 -5.96354e-016 -1.59028e-015 -0.5649 -2.3158 0.4082 -9.93923e-017 -5.96354e-016 -1.59028e-015 0.9159 -9.2044 0.2193 9.93923e-017 -1.98785e-016 -1.59028e-015 0.0117 -4.1944 -0.0248 -0.0128176 0.00232552 8.52707e-005 0.0071 -2.3249 -0.0142 9.93923e-017 5.96354e-016 -0 0.6113 -8.7231 -2.0637 9.93923e-017 -1.98785e-016 -1.59028e-015 -0.1927 -3.8059 -0.2383 -0.0160551 0.00299681 0.000857156 -0.1091 -2.1688 -0.1362 -2.48481e-016 0 3.18055e-015 -0.6151 -8.0947 -3.5641 9.93923e-017 -1.98785e-016 -1.59028e-015 -0.4882 -2.341 -0.6462 -0.0125865 0.0031206 0.00282719 -0.3575 -1.7167 -0.4742 0 1.98785e-016 -0 -1.42 -1.8761 1.4223 9.93923e-017 -1.98785e-016 -1.59028e-015 -1.1471 -3.4929 2.6334 9.93923e-017 -5.96354e-016 -1.59028e-015 -0.823 -2.3 1.6571 -9.93923e-017 -5.96354e-016 -1.59028e-015 -2.2603 21.606 7.4023 -0.865644 0.16582 7.03859 -13.5187 -1.1334 -5.0155 -88.0329 10.2057 -10.5567 0.0994 -28.0499 -0.2431 0.0015593 -0.00248883 -0.000788628 -0.0679 -23.3996 -0.1402 7.87605e-005 4.10553e-005 1.24965e-005 -0.7932 -9.0691 2.5189 -3.97569e-016 -7.95139e-016 3.18055e-015 0.8272 -3.3923 0.5977 -1.98785e-016 -3.97569e-016 3.18055e-015 0.565 -2.3158 0.4082 -1.98785e-016 0 3.18055e-015 -0.916 -9.2044 0.2193 -3.97569e-016 -7.95139e-016 3.18055e-015 -0.0117 -4.1944 -0.0248 0.0129473 0.00231697 -8.70038e-005 -0.0071 -2.3249 -0.0142 9.93923e-017 -7.95139e-016 1.59028e-015 -0.6113 -8.7231 -2.0637 -3.97569e-016 -7.95139e-016 3.18055e-015 0.1927 -3.8059 -0.2383 0.0163314 0.00303369 -0.000872333 0.1091 -2.1688 -0.1362 3.97569e-016 7.95139e-016 -3.18055e-015 0.6151 -8.0947 -3.564 -3.97569e-016 -7.95139e-016 3.18055e-015 0.4882 -2.341 -0.6462 0.0145763 0.00367772 -0.00326275 0.3574 -1.7166 -0.4742 9.93923e-017 -3.97569e-016 -0 1.4199 -1.8761 1.4221 -3.97569e-016 -7.95139e-016 3.18055e-015 1.1472 -3.4929 2.6336 -1.98785e-016 -3.97569e-016 3.18055e-015 0.8229 -2.3 1.6571 -1.98785e-016 0 3.18055e-015 -9.412 3.9771 -0.7758 3.42485 1.36937 -0.0640303 -0.7531 -40.938 0 0.000136572 0.69354 0.00145564 1.77636e-015 -40.1986 -1.11022e-016 -3.42573 -2.06297 -0.0607933 8.88178e-016 -4.4182 9.239 -3.19502e-024 0 -1.48106e-024 9.4119 3.9773 -0.7758 -3.42498 1.36123 0.0639712 0.7532 -40.9383 2.22045e-016 -6.769e-005 0.712612 -0.0012277 8.88179e-016 -40.1986 0 3.42582 -2.07388 0.0612819 -8.88178e-016 -4.4182 9.239 2.55305e-023 0 -2.31416e-026 
-4.31151 23.8181 27.766 -49.9528 -8.55748 97.0937 0 8.7983 -4.7612 0.0967465 -3.19613 0.0103151 3.55271e-015 8.0291 0.4195 0.194567 -6.39223 0.0260738 0 9.9351 -2.2114 0.19457 -6.39228 0.0260611 0 22.3885 -0.4656 -5.91508e-007 -5.78445 1.35096e-005 -0.0001 12.643 3.4389 9.21678e-008 12.4405 1.17281e-006 2.2603 21.606 7.4023 0.737126 -21.4128 -5.46128 13.5163 -1.1332 -5.0146 58.1827 -9.86376 15.4827 -0.0995 -28.05 -0.2431 -14.9092 -62.892 -38.6998 0.0679 -23.3996 -0.1402 -15.2169 11.4846 38.328 0.7932 -9.069 2.5189 -6.36111e-015 -4.77083e-015 6.36111e-015 -0.8272 -3.3923 0.5977 2.3947e-006 -4.88215e-006 -1.22632e-005 -0.5649 -2.3158 0.4082 2.64834e-031 -4.77083e-015 3.18055e-015 0.9159 -9.2044 0.2193 -6.36111e-015 -4.77083e-015 6.36111e-015 0.0117 -4.1944 -0.0248 -0.0128594 0.00233486 8.00165e-005 0.0071 -2.3249 -0.0142 3.18055e-015 4.77083e-015 -0 0.6113 -8.7231 -2.0637 -6.36111e-015 -4.77083e-015 6.36111e-015 -0.1927 -3.8059 -0.2383 -0.0160495 0.0029915 0.000849821 -0.1091 -2.1688 -0.1362 6.36111e-015 9.54166e-015 -3.18055e-015 -0.6151 -8.0947 -3.5641 -6.36111e-015 -4.77083e-015 6.36111e-015 -0.4882 -2.341 -0.6462 -0.0126262 0.00312731 0.00282268 -0.3575 -1.7167 -0.4742 -3.18055e-015 0 -0 -1.42 -1.8761 1.4223 -6.36111e-015 -4.77083e-015 6.36111e-015 -1.1471 -3.4929 2.6334 2.3947e-006 -4.88215e-006 -1.22632e-005 -0.823 -2.3 1.6571 2.64834e-031 -4.77083e-015 3.18055e-015 -2.2603 21.606 7.4023 -8.01129 -1.70979 -17.0739 -13.5187 -1.1334 -5.0155 -53.3927 -16.7776 -6.77566 0.0994 -28.0499 -0.2431 25.8254 -73.0817 15.446 -0.0679 -23.3996 -0.1402 -19.8332 12.8991 -11.4604 -0.7932 -9.0691 2.5189 -7.7873e-006 -8.45167e-007 1.18109e-007 0.8272 -3.3923 0.5977 3.18055e-015 0 3.18055e-015 0.565 -2.3158 0.4082 -0 0 3.18055e-015 -0.916 -9.2044 0.2193 -7.7873e-006 -8.45167e-007 1.18109e-007 -0.0117 -4.1944 -0.0248 0.0129527 0.00232074 -9.13441e-005 -0.0071 -2.3249 -0.0142 6.36111e-015 -3.18055e-015 6.36111e-015 -0.6113 -8.7231 -2.0637 -7.7873e-006 -8.45167e-007 1.18109e-007 0.1927 -3.8059 -0.2383 0.0163063 0.00301858 -0.000876361 0.1091 -2.1688 -0.1362 -3.18055e-015 6.36111e-015 -6.36111e-015 0.6151 -8.0947 -3.564 -7.7873e-006 -8.45167e-007 1.18109e-007 0.4882 -2.341 -0.6462 0.0145621 0.00366921 -0.00326443 0.3574 -1.7166 -0.4742 3.18055e-015 6.36111e-015 -3.18055e-015 1.4199 -1.8761 1.4221 -7.7873e-006 -8.45167e-007 1.18109e-007 1.1472 -3.4929 2.6336 3.18055e-015 0 3.18055e-015 0.8229 -2.3 1.6571 -0 0 3.18055e-015 -9.412 3.9771 -0.7758 0.271687 0.00502132 -2.18785 -0.7531 -40.938 -3.55271e-015 -5.49692 64.5658 4.82071 0 -40.1986 3.55271e-015 -5.14386 7.35033 0.37848 0 -4.4182 9.239 3.60753e-006 1.4997e-005 2.21011e-006 9.4119 3.9773 -0.7758 1.34612 -0.66345 1.41394 0.7532 -40.9383 0 1.28094 48.3424 -1.48803 5.32907e-015 -40.1986 8.88179e-016 7.97769 20.6639 0.228518 0 -4.4182 9.239 -1.67784e-032 9.67212e-015 9.93923e-017 
-0.322884 -5.78872 55.8278 -90.3963 -89.7304 89.3514 -5.55112e-017 8.7983 -4.7612 0.164029 -5.66493 0.0507333 5.55111e-017 8.0291 0.4195 0.335609 -11.3297 0.118736 0 9.9351 -2.2114 0.33561 -11.3298 0.118736 0 22.3885 -0.4656 1.11558e-006 -10.0127 1.3029e-007 -0.0001 12.643 3.4389 2.34115e-008 21.997 -1.44991e-007 2.2603 21.606 7.4023 5.85321 -37.478 2.2618 13.5163 -1.1332 -5.0146 38.2809 -30.4485 19.3329 -0.0995 -28.05 -0.2431 -148.672 -62.6098 168.278 0.0679 -23.3996 -0.1402 -26.4298 20.15 68.4379 0.7932 -9.069 2.5189 3.18055e-015 -1.78906e-015 5.36719e-015 -0.8272 -3.3923 0.5977 -5.08273e-006 1.15167e-005 9.10629e-006 -0.5649 -2.3158 0.4082 -3.18055e-015 -1.98785e-016 -3.97569e-016 0.9159 -9.2044 0.2193 3.18055e-015 -1.78906e-015 5.36719e-015 0.0117 -4.1944 -0.0248 -0.0128225 0.00232129 8.86761e-005 0.0071 -2.3249 -0.0142 3.18055e-015 9.93923e-016 2.23633e-015 0.6113 -8.7231 -2.0637 3.18055e-015 -1.78906e-015 5.36719e-015 -0.1927 -3.8059 -0.2383 -0.0160479 0.00299059 0.000860037 -0.1091 -2.1688 -0.1362 -3.18055e-015 -1.98785e-016 -6.01324e-015 -0.6151 -8.0947 -3.5641 3.18055e-015 -1.78906e-015 5.36719e-015 -0.4882 -2.341 -0.6462 -0.0125525 0.00311323 0.0028262 -0.3575 -1.7167 -0.4742 0 0 -5.51627e-015 -1.42 -1.8761 1.4223 3.18055e-015 -1.78906e-015 5.36719e-015 -1.1471 -3.4929 2.6334 -5.08273e-006 1.15167e-005 9.10629e-006 -0.823 -2.3 1.6571 -3.18055e-015 -1.98785e-016 -3.97569e-016 -2.2603 21.606 7.4023 -14.6847 -2.54675 -35.8772 -13.5187 -1.1334 -5.0155 -29.1166 -39.1248 -4.50576 0.0994 -28.0499 -0.2431 145.552 -42.192 130.12 -0.0679 -23.3996 -0.1402 -34.4916 23.3898 -20.9933 -0.7932 -9.0691 2.5189 7.95139e-016 0 3.18055e-015 0.8272 -3.3923 0.5977 -1.59028e-015 3.18055e-015 -1.98785e-016 0.565 -2.3158 0.4082 1.59028e-015 0 3.97569e-016 -0.916 -9.2044 0.2193 7.95139e-016 0 3.18055e-015 -0.0117 -4.1944 -0.0248 0.0129918 0.00232333 -9.44957e-005 -0.0071 -2.3249 -0.0142 -7.95139e-016 0 2.78299e-015 -0.6113 -8.7231 -2.0637 7.95139e-016 0 3.18055e-015 0.1927 -3.8059 -0.2383 0.0163481 0.00303813 -0.000882629 0.1091 -2.1688 -0.1362 -1.54487e-031 -3.18055e-015 -2.78299e-015 0.6151 -8.0947 -3.564 7.95139e-016 0 3.18055e-015 0.4882 -2.341 -0.6462 0.0146169 0.00367898 -0.00326434 0.3574 -1.7166 -0.4742 7.95139e-016 -6.36111e-015 -1.98785e-016 1.4199 -1.8761 1.4221 7.95139e-016 0 3.18055e-015 1.1472 -3.4929 2.6336 -1.59028e-015 3.18055e-015 -1.98785e-016 0.8229 -2.3 1.6571 1.59028e-015 0 3.97569e-016 -9.412 3.9771 -0.7758 -2.15907 0.216838 -4.96967 -0.7531 -40.938 0 -168.682 66.5845 164.786 0 -40.1986 -1.42109e-014 -6.34327 14.9605 0.121624 0 -4.4182 9.239 3.97569e-016 -9.54166e-015 3.97569e-016 9.4119 3.9773 -0.7758 4.84155 -2.21366 2.73598 0.7532 -40.9383 -4.44089e-016 29.8295 83.4093 -28.817 -3.55271e-015 -40.1986 1.42109e-014 10.9192 39.5153 1.0772 -2.66454e-015 -4.4182 9.239 -3.53113e-031 1.27222e-014 1.59028e-015 
1.23509 -9.86041 58.8988 117.708 -77.688 -63.107 0 8.7983 -4.7612 0.172754 -5.95213 0.0584573 0 8.0291 0.4195 0.354521 -11.9041 0.136169 -1.77636e-015 9.9351 -2.2114 0.354523 -11.9041 0.13617 1.77636e-015 22.3885 -0.4656 -1.93497e-006 -9.5732 -5.83088e-007 -0.0001 12.643 3.4389 1.71125e-006 22.9016 -1.02136e-007 2.2603 21.606 7.4023 7.30944 -39.9587 3.86305 13.5163 -1.1332 -5.0146 35.7302 -33.4561 20.005 -0.0995 -28.05 -0.2431 -153.112 -55.8223 161.186 0.0679 -23.3996 -0.1402 -27.9059 21.4132 72.8673 0.793199 -9.06901 2.5189 1.21555e-032 5.96354e-016 -1.16786e-015 -0.827199 -3.3923 0.5977 -1.59028e-015 -1.98785e-016 2.01269e-015 -0.5649 -2.3158 0.4082 -7.95139e-016 -1.98785e-016 2.01269e-015 0.915899 -9.20441 0.2193 1.21555e-032 5.96354e-016 -1.16786e-015 0.0117 -4.1944 -0.0248 -0.0127914 0.0023316 9.0895e-005 0.0071 -2.3249 -0.0142 -7.95139e-016 0 -9.69075e-016 0.6113 -8.72311 -2.0637 1.21555e-032 5.96354e-016 -1.16786e-015 -0.1927 -3.8059 -0.2383 -0.0160476 0.00299014 0.000858224 -0.1091 -2.1688 -0.1362 1.59028e-015 -3.97569e-016 -3.27995e-015 -0.6151 -8.09471 -3.5641 1.21555e-032 5.96354e-016 -1.16786e-015 -0.4882 -2.341 -0.6462 -0.012588 0.0031305 0.00282896 -0.3575 -1.7167 -0.4742 -7.95139e-016 -1.21259e-014 -8.69683e-016 -1.42 -1.8761 1.4223 1.21555e-032 5.96354e-016 -1.16786e-015 -1.1471 -3.4929 2.6334 -1.59028e-015 -1.98785e-016 2.01269e-015 -0.822999 -2.3 1.6571 -7.95139e-016 -1.98785e-016 2.01269e-015 -2.2603 21.606 7.4023 -15.8414 -2.92525 -38.6498 -13.5187 -1.1334 -5.0155 -25.8944 -42.367 -4.34278 0.0994 -28.0499 -0.2431 146.446 -33.8953 130.369 -0.0679 -23.3996 -0.1402 -36.5561 25.0173 -22.4805 -0.7932 -9.0691 2.5189 3.38217e-006 -1.2094e-005 9.21625e-006 0.8272 -3.3923 0.5977 -1.32417e-031 -3.18055e-015 -2.38542e-015 0.565 -2.3158 0.4082 1.76556e-031 -6.36111e-015 1.59028e-015 -0.916 -9.2044 0.2193 3.38217e-006 -1.2094e-005 9.21625e-006 -0.0117 -4.1944 -0.0248 0.0129492 0.00231332 -8.58949e-005 -0.0071 -2.3249 -0.0142 -3.32507e-006 6.5915e-006 5.25131e-006 -0.6113 -8.7231 -2.0637 3.38217e-006 -1.2094e-005 9.21625e-006 0.1927 -3.8059 -0.2383 0.0163288 0.00305138 -0.000876529 0.1091 -2.1688 -0.1362 -0 -3.18055e-015 -0 0.6151 -8.0947 -3.564 3.38217e-006 -1.2094e-005 9.21625e-006 0.4882 -2.341 -0.6462 0.0145685 0.00368862 -0.0032613 0.3574 -1.7166 -0.4742 -1.76556e-031 -3.18055e-015 -3.18055e-015 1.4199 -1.8761 1.4221 3.38217e-006 -1.2094e-005 9.21625e-006 1.1472 -3.4929 2.6336 -1.32417e-031 -3.18055e-015 -2.38542e-015 0.8229 -2.3 1.6571 1.76556e-031 -6.36111e-015 1.59028e-015 -9.412 3.9771 -0.7758 -2.51433 0.41647 -5.61531 -0.7531 -40.938 1.77636e-015 -171.041 59.8018 166.363 1.77636e-015 -40.1986 1.42109e-014 -6.46302 15.9106 -0.0299246 -1.77636e-015 -4.4182 9.239 8.97426e-007 -6.1636e-006 -2.75366e-006 9.4119 3.9773 -0.7758 5.32974 -2.445 2.97548 0.7532 -40.9383 0 80.4249 86.331 -79.1417 0 -40.1986 0 11.2388 42.2566 1.30522 8.88178e-016 -4.4182 9.239 -1.17897e-006 -3.60522e-006 3.24805e-008 
